Coordinates
version=1
nRows=6
nColumns=63
inDegrees=yes

Units are S.I. units (second, meters, Newtons, ...)
If the header above contains a line with 'inDegrees', this indicates whether rotational values are in degrees (yes) or radians (no).

endheader
time	pelvis_tilt	pelvis_list	pelvis_rotation	pelvis_tx	pelvis_ty	pelvis_tz	hip_flexion_r	hip_adduction_r	hip_rotation_r	knee_angle_r	knee_angle_r_beta	ankle_angle_r	subtalar_angle_r	mtp_angle_r	hip_flexion_l	hip_adduction_l	hip_rotation_l	knee_angle_l	knee_angle_l_beta	ankle_angle_l	subtalar_angle_l	mtp_angle_l	L5_S1_Flex_Ext	L5_S1_Lat_Bending	L5_S1_axial_rotation	L4_L5_Flex_Ext	L4_L5_Lat_Bending	L4_L5_axial_rotation	L3_L4_Flex_Ext	L3_L4_Lat_Bending	L3_L4_axial_rotation	L2_L3_Flex_Ext	L2_L3_Lat_Bending	L2_L3_axial_rotation	L1_L2_Flex_Ext	L1_L2_Lat_Bending	L1_L2_axial_rotation	L1_T12_Flex_Ext	L1_T12_Lat_Bending	L1_T12_axial_rotation	Abs_r3	Abs_r2	Abs_r1	Abs_t1	Abs_t2	neck_flexion	neck_bending	neck_rotation	arm_flex_r	arm_add_r	arm_rot_r	elbow_flex_r	pro_sup_r	wrist_flex_r	wrist_dev_r	arm_flex_l	arm_add_l	arm_rot_l	elbow_flex_l	pro_sup_l	wrist_flex_l	wrist_dev_l
1.300000	6.237510	-1.881981	118.076872	0.297203	0.552852	0.933482	8.908562	-0.570672	-24.998394	17.513652	0.305671	33.605593	13.468053	0.000000	5.504278	-1.137383	-2.535548	8.957366	0.156336	28.767609	12.145997	0.000000	-0.087380	0.549675	-1.436608	-0.162274	0.731068	-1.526396	-0.143557	1.336481	-1.526396	-0.099867	1.336481	-1.257032	-0.081141	1.120898	-1.167244	-0.049929	0.851447	-1.077456	-0.624148	6.218039	-7.989981	0.000000	0.000000	21.840758	1.491578	8.335446	8.795279	-15.462463	136.549443	5.778241	3.747456	-7.052600	-9.783392	5.163751	-8.992085	162.394772	3.113069	7.754792	-3.121928	-3.463326
1.325000	6.267874	-2.112497	117.595375	0.298592	0.552500	0.933840	9.427146	-0.583962	-24.124682	17.914746	0.312671	33.416854	12.561088	0.000000	5.676757	-1.098136	-2.752751	8.816997	0.153886	28.548698	11.819848	0.000000	-0.068563	0.538760	-1.351049	-0.127329	0.716551	-1.435489	-0.112643	1.309941	-1.435489	-0.078361	1.309941	-1.182168	-0.063668	1.098639	-1.097727	-0.039177	0.834539	-1.013287	-0.489740	6.094561	-7.514128	0.000000	0.000000	21.881242	1.408658	8.256571	9.522262	-15.300726	140.240226	4.618546	3.496679	-7.306854	-10.023043	5.300751	-9.974507	158.765691	3.260064	6.006288	-2.033541	-2.837077
1.350000	6.246158	-2.375394	117.130268	0.300170	0.552016	0.934073	9.954151	-0.644380	-23.247227	18.353952	0.320337	33.203265	11.508132	0.000000	5.833593	-1.008229	-2.951153	8.639222	0.150783	28.310024	11.498753	0.000000	-0.051034	0.511721	-1.276100	-0.094776	0.680589	-1.355856	-0.083844	1.244199	-1.355856	-0.058327	1.244199	-1.116587	-0.047390	1.043502	-1.036831	-0.029161	0.792656	-0.957075	-0.364533	5.788695	-7.097284	0.000000	0.000000	21.993508	1.492026	8.009543	10.381592	-15.084706	143.861284	3.410998	3.241137	-7.338058	-10.071469	5.469482	-11.156108	154.597442	3.388246	5.658835	-0.880512	-2.030537
1.375000	6.184292	-2.661042	116.712392	0.301836	0.551437	0.934166	10.465546	-0.739628	-22.397158	18.796801	0.328066	32.975889	10.347913	0.000000	5.969232	-0.872121	-3.018823	8.421346	0.146980	28.036660	11.077761	0.000000	-0.033993	0.472197	-1.219536	-0.063129	0.628022	-1.295757	-0.055848	1.148101	-1.295757	-0.038851	1.148101	-1.067094	-0.031566	0.962905	-0.990873	-0.019424	0.731434	-0.914652	-0.242811	5.341591	-6.782692	0.000000	0.000000	22.165265	1.751250	7.686418	11.362071	-14.822774	147.128896	2.223097	2.938408	-7.112981	-9.892103	5.681624	-12.487930	150.016127	3.525929	6.692072	0.336326	-1.099354
1.400000	6.099914	-2.948218	116.359258	0.303478	0.550839	0.934076	10.923475	-0.855073	-21.678296	19.204521	0.335182	32.737843	9.225038	0.000000	6.070362	-0.716125	-2.997632	8.170297	0.142599	27.721842	10.623729	0.000000	-0.017139	0.425638	-1.189775	-0.031829	0.566099	-1.264136	-0.028158	1.034897	-1.264136	-0.019589	1.034897	-1.041053	-0.015916	0.867961	-0.966692	-0.009793	0.659314	-0.892331	-0.122424	4.814905	-6.617170	0.000000	0.000000	22.368829	2.178982	7.377491	12.473773	-14.564861	149.501423	1.271640	2.681189	-6.698404	-9.440513	5.933331	-13.912585	144.971342	3.691206	8.895571	1.627664	-0.014976
1.425000	5.987783	-3.210965	116.052251	0.305026	0.550305	0.933758	11.283694	-0.967213	-20.963835	19.532062	0.340899	32.462172	8.040590	0.000000	6.103969	-0.540006	-2.862230	7.890123	0.137709	27.350775	10.075677	0.000000	-0.001955	0.375190	-1.181813	-0.003631	0.499003	-1.255677	-0.003212	0.912237	-1.255677	-0.002234	0.912237	-1.034087	-0.001815	0.765088	-0.960223	-0.001117	0.581169	-0.886360	-0.013965	4.244225	-6.572891	0.000000	0.000000	22.575778	2.720410	7.112732	13.668540	-14.332236	150.603457	0.655732	2.517686	-6.066314	-8.808111	6.261606	-15.354915	138.721701	3.925223	13.250366	2.911822	1.256484
